<svg width="113" height="47" viewBox="0 0 113 47" fill="none" xmlns="http://www.w3.org/2000/svg">
<path d="M48.2376 24.8428C48.2376 29.9204 44.0733 33.6621 38.9626 33.6621C33.852 33.6621 29.6876 29.9204 29.6876 24.8428C29.6876 19.7293 33.852 16.0234 38.9626 16.0234C44.0733 16.0234 48.2376 19.7293 48.2376 24.8428ZM44.1775 24.8428C44.1775 21.6697 41.7639 19.4987 38.9626 19.4987C36.1613 19.4987 33.7478 21.6697 33.7478 24.8428C33.7478 27.984 36.1613 30.1868 38.9626 30.1868C41.7639 30.1868 44.1775 27.98 44.1775 24.8428Z" fill="#EA4335"/>
<path d="M68.2468 24.8428C68.2468 29.9204 64.0824 33.6621 58.9718 33.6621C53.8612 33.6621 49.6968 29.9204 49.6968 24.8428C49.6968 19.7333 53.8612 16.0234 58.9718 16.0234C64.0824 16.0234 68.2468 19.7293 68.2468 24.8428ZM64.1867 24.8428C64.1867 21.6697 61.7731 19.4987 58.9718 19.4987C56.1705 19.4987 53.7569 21.6697 53.7569 24.8428C53.7569 27.984 56.1705 30.1868 58.9718 30.1868C61.7731 30.1868 64.1867 27.98 64.1867 24.8428Z" fill="#FBBC05"/>
<path d="M87.4224 16.5563V32.3897C87.4224 38.9028 83.3956 41.5629 78.6351 41.5629C74.1539 41.5629 71.4569 38.704 70.4398 36.3659L73.9747 34.9623C74.6041 36.3977 76.1465 38.0916 78.631 38.0916C81.6782 38.0916 83.5665 36.2983 83.5665 32.9225V31.6541H83.4248C82.516 32.7237 80.7653 33.6581 78.5559 33.6581C73.933 33.6581 69.6978 29.817 69.6978 24.8746C69.6978 19.8963 73.933 16.0234 78.5559 16.0234C80.7611 16.0234 82.5119 16.9579 83.4248 17.9957H83.5665V16.5602H87.4224V16.5563ZM83.8541 24.8746C83.8541 21.7691 81.6823 19.4987 78.9186 19.4987C76.1173 19.4987 73.7704 21.7691 73.7704 24.8746C73.7704 27.9482 76.1173 30.1868 78.9186 30.1868C81.6823 30.1868 83.8541 27.9482 83.8541 24.8746Z" fill="#4285F4"/>
<path d="M93.779 7.27588V33.1215H89.8188V7.27588H93.779Z" fill="#34A853"/>
<path d="M109.211 27.7455L112.363 29.7495C111.346 31.1849 108.895 33.6582 104.659 33.6582C99.407 33.6582 95.4844 29.7853 95.4844 24.8389C95.4844 19.5942 99.4403 16.0195 104.205 16.0195C109.003 16.0195 111.35 19.6618 112.117 21.63L112.538 22.632L100.178 27.5149C101.124 29.2843 102.596 30.1869 104.659 30.1869C106.727 30.1869 108.161 29.2167 109.211 27.7455ZM99.5112 24.5724L107.773 21.3C107.319 20.1986 105.952 19.4312 104.343 19.4312C102.279 19.4312 99.407 21.1688 99.5112 24.5724V24.5724Z" fill="#EA4335"/>
<path d="M14.6975 22.5485V18.8069H27.9159C28.0451 19.459 28.1118 20.2304 28.1118 21.0654C28.1118 23.8726 27.3073 27.3439 24.7145 29.8171C22.1925 32.3222 18.9702 33.6582 14.7016 33.6582C6.78972 33.6582 0.136719 27.5109 0.136719 19.964C0.136719 12.4171 6.78972 6.26978 14.7016 6.26978C19.0786 6.26978 22.1967 7.90799 24.5394 10.0432L21.7715 12.6835C20.0916 11.1804 17.8155 10.0114 14.6975 10.0114C8.91985 10.0114 4.40114 14.4529 4.40114 19.964C4.40114 25.4751 8.91985 29.9165 14.6975 29.9165C18.445 29.9165 20.5793 28.4811 21.9466 27.1769C23.0554 26.1192 23.7849 24.6082 24.0725 22.5446L14.6975 22.5485V22.5485Z" fill="#4285F4"/>
</svg>
