<svg width="153" height="18" viewBox="0 0 153 18" fill="none" xmlns="http://www.w3.org/2000/svg">
<path d="M9.19686 17.22C7.97953 17.22 6.86486 17.022 5.85286 16.626C4.84086 16.23 3.96086 15.6727 3.21286 14.954C2.46486 14.2353 1.88553 13.3847 1.47486 12.402C1.07886 11.4193 0.880859 10.3487 0.880859 9.19C0.880859 8.01667 1.07886 6.946 1.47486 5.978C1.88553 4.99533 2.46486 4.14467 3.21286 3.426C3.96086 2.70733 4.84086 2.15 5.85286 1.754C6.86486 1.358 7.97219 1.16 9.17486 1.16C10.3922 1.16 11.4995 1.358 12.4969 1.754C13.5089 2.15 14.3889 2.70733 15.1369 3.426C15.8849 4.14467 16.4569 4.99533 16.8529 5.978C17.2635 6.946 17.4689 8.00933 17.4689 9.168C17.4689 10.3413 17.2635 11.4193 16.8529 12.402C16.4569 13.3847 15.8849 14.2353 15.1369 14.954C14.3889 15.6727 13.5089 16.23 12.4969 16.626C11.4995 17.022 10.3995 17.22 9.19686 17.22ZM9.17486 12.82C9.67353 12.82 10.1282 12.732 10.5389 12.556C10.9642 12.38 11.3309 12.1307 11.6389 11.808C11.9615 11.4707 12.2035 11.082 12.3649 10.642C12.5409 10.202 12.6289 9.718 12.6289 9.19C12.6289 8.662 12.5409 8.178 12.3649 7.738C12.2035 7.298 11.9615 6.91667 11.6389 6.594C11.3309 6.25667 10.9642 6 10.5389 5.824C10.1282 5.648 9.67353 5.56 9.17486 5.56C8.67619 5.56 8.21419 5.648 7.78886 5.824C7.37819 6 7.01153 6.25667 6.68886 6.594C6.38086 6.91667 6.13886 7.298 5.96286 7.738C5.80153 8.178 5.72086 8.662 5.72086 9.19C5.72086 9.718 5.80153 10.202 5.96286 10.642C6.13886 11.082 6.38086 11.4707 6.68886 11.808C7.01153 12.1307 7.37819 12.38 7.78886 12.556C8.21419 12.732 8.67619 12.82 9.17486 12.82Z" fill="white"/>
<path d="M19.8357 17V1.6H23.9277L29.5377 10.73L26.2157 10.708L31.8917 1.6H35.8517V17H31.2757V13.326C31.2757 12.006 31.305 10.818 31.3637 9.762C31.437 8.706 31.5544 7.65733 31.7157 6.616L32.2437 8.002L28.5257 13.766H27.0737L23.4217 8.002L23.9717 6.616C24.133 7.59867 24.243 8.61067 24.3017 9.652C24.375 10.6787 24.4117 11.9033 24.4117 13.326V17H19.8357Z" fill="white"/>
<path d="M39.0922 17V1.6H43.3382L50.4222 11.39L49.4102 11.082C49.3369 10.4953 49.2709 9.982 49.2122 9.542C49.1682 9.102 49.1242 8.69867 49.0802 8.332C49.0509 7.95067 49.0215 7.57667 48.9922 7.21C48.9775 6.84333 48.9702 6.44 48.9702 6C48.9702 5.56 48.9702 5.04667 48.9702 4.46V1.6H53.5462V17H49.2562L41.4462 6.22L43.2282 6.748C43.3015 7.29067 43.3602 7.76733 43.4042 8.178C43.4629 8.574 43.5069 8.94067 43.5362 9.278C43.5655 9.61533 43.5875 9.95267 43.6022 10.29C43.6315 10.6127 43.6462 10.9793 43.6462 11.39C43.6609 11.786 43.6682 12.2553 43.6682 12.798V17H39.0922Z" fill="white"/>
<path d="M56.8018 17V1.6H68.3078V5.45H61.3558V13.15H68.7038V17H56.8018ZM59.0678 11.016V7.408H67.4938V11.016H59.0678Z" fill="white"/>
<path d="M76.6143 17.22C75.4557 17.22 74.429 17.0953 73.5343 16.846C72.6543 16.582 71.877 16.2153 71.2023 15.746C70.5423 15.2767 69.9483 14.7267 69.4203 14.096L72.1703 11.016C72.9037 11.9547 73.6663 12.578 74.4583 12.886C75.265 13.1793 76.0203 13.326 76.7243 13.326C77.003 13.326 77.2523 13.304 77.4723 13.26C77.6923 13.2013 77.861 13.1133 77.9783 12.996C78.0957 12.8787 78.1543 12.7173 78.1543 12.512C78.1543 12.3213 78.0883 12.16 77.9563 12.028C77.839 11.896 77.6777 11.786 77.4723 11.698C77.267 11.5953 77.0397 11.5147 76.7903 11.456C76.5557 11.3827 76.321 11.324 76.0863 11.28C75.8663 11.236 75.6683 11.192 75.4923 11.148C74.6123 10.9427 73.8423 10.6933 73.1823 10.4C72.5223 10.1067 71.9723 9.75467 71.5323 9.344C71.0923 8.93333 70.7623 8.464 70.5423 7.936C70.337 7.408 70.2343 6.814 70.2343 6.154C70.2343 5.406 70.403 4.724 70.7403 4.108C71.0923 3.492 71.5543 2.964 72.1263 2.524C72.713 2.084 73.373 1.74667 74.1063 1.512C74.8543 1.27733 75.6243 1.16 76.4163 1.16C77.575 1.16 78.543 1.27 79.3203 1.49C80.0977 1.69533 80.7503 1.996 81.2783 2.392C81.8063 2.788 82.261 3.25 82.6423 3.778L79.8703 6.44C79.5477 6.132 79.2103 5.88267 78.8583 5.692C78.5063 5.48667 78.1397 5.34 77.7583 5.252C77.3917 5.14933 77.025 5.098 76.6583 5.098C76.321 5.098 76.035 5.12733 75.8003 5.186C75.5657 5.23 75.3823 5.31067 75.2503 5.428C75.1183 5.53067 75.0523 5.67733 75.0523 5.868C75.0523 6.05867 75.133 6.22 75.2943 6.352C75.4703 6.46933 75.683 6.572 75.9323 6.66C76.1963 6.748 76.453 6.82133 76.7023 6.88C76.9663 6.924 77.1863 6.96067 77.3623 6.99C78.169 7.13667 78.9097 7.342 79.5843 7.606C80.259 7.85533 80.8457 8.178 81.3443 8.574C81.8577 8.95533 82.2463 9.43933 82.5103 10.026C82.789 10.598 82.9283 11.28 82.9283 12.072C82.9283 13.2013 82.6423 14.1473 82.0703 14.91C81.513 15.6727 80.7577 16.252 79.8043 16.648C78.851 17.0293 77.7877 17.22 76.6143 17.22Z" fill="white"/>
<path d="M85.0453 17V1.6H92.1293C93.244 1.6 94.1826 1.754 94.9453 2.062C95.7226 2.37 96.3093 2.80267 96.7053 3.36C97.116 3.91733 97.3213 4.57 97.3213 5.318C97.3213 6.242 97.1086 7.00467 96.6833 7.606C96.2726 8.20733 95.664 8.61067 94.8573 8.816L94.7913 8.398C95.466 8.55933 96.0526 8.82333 96.5513 9.19C97.05 9.542 97.4386 9.97467 97.7173 10.488C97.996 11.0013 98.1353 11.588 98.1353 12.248C98.1353 13.0547 97.9886 13.7587 97.6953 14.36C97.402 14.9467 96.984 15.438 96.4413 15.834C95.9133 16.23 95.2973 16.5233 94.5933 16.714C93.904 16.9047 93.156 17 92.3493 17H85.0453ZM89.4453 13.26H92.2173C92.496 13.26 92.7306 13.216 92.9213 13.128C93.112 13.0253 93.2586 12.8787 93.3613 12.688C93.464 12.4827 93.5153 12.2407 93.5153 11.962C93.5153 11.7127 93.4566 11.5073 93.3393 11.346C93.2366 11.17 93.0826 11.038 92.8773 10.95C92.672 10.8473 92.4153 10.796 92.1073 10.796H89.4453V13.26ZM89.4453 7.628H91.3153C91.6526 7.628 91.924 7.584 92.1293 7.496C92.3493 7.408 92.5033 7.28333 92.5913 7.122C92.694 6.946 92.7453 6.73333 92.7453 6.484C92.7453 6.14667 92.628 5.87533 92.3933 5.67C92.1733 5.45 91.7993 5.34 91.2713 5.34H89.4453V7.628Z" fill="white"/>
<path d="M146.392 17L141.618 10.092L135.502 1.6H141.2L145.864 8.42L152.09 17H146.392ZM135.392 17L141.266 8.618L145.424 10.356L140.87 17H135.392ZM146.216 9.85L142.08 8.178L146.392 1.6H151.87L146.216 9.85Z" fill="white"/>
<path d="M124.756 0C122.61 0 121.086 0.509434 119.217 1.83396C118.074 2.54717 117.52 2.78491 117.035 2.78491C116.447 2.78491 115.893 2.54717 114.854 1.83396C112.985 0.509434 111.427 0 109.315 0C104.086 0 100.001 3.93962 100.001 9C100.001 14.0604 104.017 18 109.245 18C111.357 18 112.881 17.4906 114.785 16.166C115.824 15.4189 116.378 15.2151 116.966 15.2151C117.624 15.2151 118.143 15.4528 119.147 16.166C121.017 17.4906 122.575 18 124.687 18C129.915 18 134.001 14.0604 134.001 9C134.001 3.93962 129.95 0 124.756 0ZM124.722 13.1774C123.51 13.1774 121.71 12.4642 120.359 11.4792C119.078 10.5283 118.074 10.1208 117.001 10.1208C115.928 10.1208 114.923 10.5283 113.642 11.4792C112.292 12.4642 110.492 13.1434 109.28 13.1434C107.029 13.1434 105.264 11.3094 105.264 8.96604C105.264 6.62264 107.064 4.78868 109.28 4.78868C110.492 4.78868 112.292 5.46792 113.642 6.45283C114.958 7.40377 115.997 7.81132 117.001 7.81132C118.074 7.81132 119.078 7.40377 120.359 6.45283C121.71 5.46792 123.51 4.75472 124.722 4.75472C126.972 4.75472 128.738 6.58868 128.738 8.93208C128.738 11.2755 126.972 13.1774 124.722 13.1774Z" fill="white"/>
</svg>
